<?xml version="1.0"?>
<!-- Generated by SVGo -->
<svg width="400" height="300"
     viewBox="20 20 350 260"
     xmlns="http://www.w3.org/2000/svg"
     xmlns:xlink="http://www.w3.org/1999/xlink">
<rect x="124" y="44" width="6" height="6" style="fill:black;stroke:none" />
<rect x="130" y="44" width="6" height="6" style="fill:black;stroke:none" />
<rect x="136" y="44" width="6" height="6" style="fill:black;stroke:none" />
<rect x="142" y="44" width="6" height="6" style="fill:black;stroke:none" />
<rect x="148" y="44" width="6" height="6" style="fill:black;stroke:none" />
<rect x="154" y="44" width="6" height="6" style="fill:black;stroke:none" />
<rect x="160" y="44" width="6" height="6" style="fill:black;stroke:none" />
<rect x="166" y="44" width="6" height="6" style="fill:white;stroke:none" />
<rect x="172" y="44" width="6" height="6" style="fill:white;stroke:none" />
<rect x="178" y="44" width="6" height="6" style="fill:black;stroke:none" />
<rect x="184" y="44" width="6" height="6" style="fill:white;stroke:none" />
<rect x="190" y="44" width="6" height="6" style="fill:white;stroke:none" />
<rect x="196" y="44" width="6" height="6" style="fill:white;stroke:none" />
<rect x="202" y="44" width="6" height="6" style="fill:black;stroke:none" />
<rect x="208" y="44" width="6" height="6" style="fill:black;stroke:none" />
<rect x="214" y="44" width="6" height="6" style="fill:black;stroke:none" />
<rect x="220" y="44" width="6" height="6" style="fill:black;stroke:none" />
<rect x="226" y="44" width="6" height="6" style="fill:white;stroke:none" />
<rect x="232" y="44" width="6" height="6" style="fill:black;stroke:none" />
<rect x="238" y="44" width="6" height="6" style="fill:black;stroke:none" />
<rect x="244" y="44" width="6" height="6" style="fill:black;stroke:none" />
<rect x="250" y="44" width="6" height="6" style="fill:black;stroke:none" />
<rect x="256" y="44" width="6" height="6" style="fill:black;stroke:none" />
<rect x="262" y="44" width="6" height="6" style="fill:black;stroke:none" />
<rect x="268" y="44" width="6" height="6" style="fill:black;stroke:none" />
<rect x="124" y="50" width="6" height="6" style="fill:black;stroke:none" />
<rect x="130" y="50" width="6" height="6" style="fill:white;stroke:none" />
<rect x="136" y="50" width="6" height="6" style="fill:white;stroke:none" />
<rect x="142" y="50" width="6" height="6" style="fill:white;stroke:none" />
<rect x="148" y="50" width="6" height="6" style="fill:white;stroke:none" />
<rect x="154" y="50" width="6" height="6" style="fill:white;stroke:none" />
<rect x="160" y="50" width="6" height="6" style="fill:black;stroke:none" />
<rect x="166" y="50" width="6" height="6" style="fill:white;stroke:none" />
<rect x="172" y="50" width="6" height="6" style="fill:white;stroke:none" />
<rect x="178" y="50" width="6" height="6" style="fill:white;stroke:none" />
<rect x="184" y="50" width="6" height="6" style="fill:black;stroke:none" />
<rect x="190" y="50" width="6" height="6" style="fill:white;stroke:none" />
<rect x="196" y="50" width="6" height="6" style="fill:black;stroke:none" />
<rect x="202" y="50" width="6" height="6" style="fill:white;stroke:none" />
<rect x="208" y="50" width="6" height="6" style="fill:white;stroke:none" />
<rect x="214" y="50" width="6" height="6" style="fill:white;stroke:none" />
<rect x="220" y="50" width="6" height="6" style="fill:white;stroke:none" />
<rect x="226" y="50" width="6" height="6" style="fill:white;stroke:none" />
<rect x="232" y="50" width="6" height="6" style="fill:black;stroke:none" />
<rect x="238" y="50" width="6" height="6" style="fill:white;stroke:none" />
<rect x="244" y="50" width="6" height="6" style="fill:white;stroke:none" />
<rect x="250" y="50" width="6" height="6" style="fill:white;stroke:none" />
<rect x="256" y="50" width="6" height="6" style="fill:white;stroke:none" />
<rect x="262" y="50" width="6" height="6" style="fill:white;stroke:none" />
<rect x="268" y="50" width="6" height="6" style="fill:black;stroke:none" />
<rect x="124" y="56" width="6" height="6" style="fill:black;stroke:none" />
<rect x="130" y="56" width="6" height="6" style="fill:white;stroke:none" />
<rect x="136" y="56" width="6" height="6" style="fill:black;stroke:none" />
<rect x="142" y="56" width="6" height="6" style="fill:black;stroke:none" />
<rect x="148" y="56" width="6" height="6" style="fill:black;stroke:none" />
<rect x="154" y="56" width="6" height="6" style="fill:white;stroke:none" />
<rect x="160" y="56" width="6" height="6" style="fill:black;stroke:none" />
<rect x="166" y="56" width="6" height="6" style="fill:white;stroke:none" />
<rect x="172" y="56" width="6" height="6" style="fill:white;stroke:none" />
<rect x="178" y="56" width="6" height="6" style="fill:black;stroke:none" />
<rect x="184" y="56" width="6" height="6" style="fill:black;stroke:none" />
<rect x="190" y="56" width="6" height="6" style="fill:white;stroke:none" />
<rect x="196" y="56" width="6" height="6" style="fill:white;stroke:none" />
<rect x="202" y="56" width="6" height="6" style="fill:white;stroke:none" />
<rect x="208" y="56" width="6" height="6" style="fill:black;stroke:none" />
<rect x="214" y="56" width="6" height="6" style="fill:black;stroke:none" />
<rect x="220" y="56" width="6" height="6" style="fill:black;stroke:none" />
<rect x="226" y="56" width="6" height="6" style="fill:white;stroke:none" />
<rect x="232" y="56" width="6" height="6" style="fill:black;stroke:none" />
<rect x="238" y="56" width="6" height="6" style="fill:white;stroke:none" />
<rect x="244" y="56" width="6" height="6" style="fill:black;stroke:none" />
<rect x="250" y="56" width="6" height="6" style="fill:black;stroke:none" />
<rect x="256" y="56" width="6" height="6" style="fill:black;stroke:none" />
<rect x="262" y="56" width="6" height="6" style="fill:white;stroke:none" />
<rect x="268" y="56" width="6" height="6" style="fill:black;stroke:none" />
<rect x="124" y="62" width="6" height="6" style="fill:black;stroke:none" />
<rect x="130" y="62" width="6" height="6" style="fill:white;stroke:none" />
<rect x="136" y="62" width="6" height="6" style="fill:black;stroke:none" />
<rect x="142" y="62" width="6" height="6" style="fill:black;stroke:none" />
<rect x="148" y="62" width="6" height="6" style="fill:black;stroke:none" />
<rect x="154" y="62" width="6" height="6" style="fill:white;stroke:none" />
<rect x="160" y="62" width="6" height="6" style="fill:black;stroke:none" />
<rect x="166" y="62" width="6" height="6" style="fill:white;stroke:none" />
<rect x="172" y="62" width="6" height="6" style="fill:white;stroke:none" />
<rect x="178" y="62" width="6" height="6" style="fill:black;stroke:none" />
<rect x="184" y="62" width="6" height="6" style="fill:white;stroke:none" />
<rect x="190" y="62" width="6" height="6" style="fill:white;stroke:none" />
<rect x="196" y="62" width="6" height="6" style="fill:black;stroke:none" />
<rect x="202" y="62" width="6" height="6" style="fill:white;stroke:none" />
<rect x="208" y="62" width="6" height="6" style="fill:black;stroke:none" />
<rect x="214" y="62" width="6" height="6" style="fill:white;stroke:none" />
<rect x="220" y="62" width="6" height="6" style="fill:black;stroke:none" />
<rect x="226" y="62" width="6" height="6" style="fill:white;stroke:none" />
<rect x="232" y="62" width="6" height="6" style="fill:black;stroke:none" />
<rect x="238" y="62" width="6" height="6" style="fill:white;stroke:none" />
<rect x="244" y="62" width="6" height="6" style="fill:black;stroke:none" />
<rect x="250" y="62" width="6" height="6" style="fill:black;stroke:none" />
<rect x="256" y="62" width="6" height="6" style="fill:black;stroke:none" />
<rect x="262" y="62" width="6" height="6" style="fill:white;stroke:none" />
<rect x="268" y="62" width="6" height="6" style="fill:black;stroke:none" />
<rect x="124" y="68" width="6" height="6" style="fill:black;stroke:none" />
<rect x="130" y="68" width="6" height="6" style="fill:white;stroke:none" />
<rect x="136" y="68" width="6" height="6" style="fill:black;stroke:none" />
<rect x="142" y="68" width="6" height="6" style="fill:black;stroke:none" />
<rect x="148" y="68" width="6" height="6" style="fill:black;stroke:none" />
<rect x="154" y="68" width="6" height="6" style="fill:white;stroke:none" />
<rect x="160" y="68" width="6" height="6" style="fill:black;stroke:none" />
<rect x="166" y="68" width="6" height="6" style="fill:white;stroke:none" />
<rect x="172" y="68" width="6" height="6" style="fill:white;stroke:none" />
<rect x="178" y="68" width="6" height="6" style="fill:black;stroke:none" />
<rect x="184" y="68" width="6" height="6" style="fill:black;stroke:none" />
<rect x="190" y="68" width="6" height="6" style="fill:white;stroke:none" />
<rect x="196" y="68" width="6" height="6" style="fill:white;stroke:none" />
<rect x="202" y="68" width="6" height="6" style="fill:white;stroke:none" />
<rect x="208" y="68" width="6" height="6" style="fill:black;stroke:none" />
<rect x="214" y="68" width="6" height="6" style="fill:black;stroke:none" />
<rect x="220" y="68" width="6" height="6" style="fill:black;stroke:none" />
<rect x="226" y="68" width="6" height="6" style="fill:white;stroke:none" />
<rect x="232" y="68" width="6" height="6" style="fill:black;stroke:none" />
<rect x="238" y="68" width="6" height="6" style="fill:white;stroke:none" />
<rect x="244" y="68" width="6" height="6" style="fill:black;stroke:none" />
<rect x="250" y="68" width="6" height="6" style="fill:black;stroke:none" />
<rect x="256" y="68" width="6" height="6" style="fill:black;stroke:none" />
<rect x="262" y="68" width="6" height="6" style="fill:white;stroke:none" />
<rect x="268" y="68" width="6" height="6" style="fill:black;stroke:none" />
<rect x="124" y="74" width="6" height="6" style="fill:black;stroke:none" />
<rect x="130" y="74" width="6" height="6" style="fill:white;stroke:none" />
<rect x="136" y="74" width="6" height="6" style="fill:white;stroke:none" />
<rect x="142" y="74" width="6" height="6" style="fill:white;stroke:none" />
<rect x="148" y="74" width="6" height="6" style="fill:white;stroke:none" />
<rect x="154" y="74" width="6" height="6" style="fill:white;stroke:none" />
<rect x="160" y="74" width="6" height="6" style="fill:black;stroke:none" />
<rect x="166" y="74" width="6" height="6" style="fill:white;stroke:none" />
<rect x="172" y="74" width="6" height="6" style="fill:black;stroke:none" />
<rect x="178" y="74" width="6" height="6" style="fill:white;stroke:none" />
<rect x="184" y="74" width="6" height="6" style="fill:white;stroke:none" />
<rect x="190" y="74" width="6" height="6" style="fill:black;stroke:none" />
<rect x="196" y="74" width="6" height="6" style="fill:white;stroke:none" />
<rect x="202" y="74" width="6" height="6" style="fill:white;stroke:none" />
<rect x="208" y="74" width="6" height="6" style="fill:white;stroke:none" />
<rect x="214" y="74" width="6" height="6" style="fill:white;stroke:none" />
<rect x="220" y="74" width="6" height="6" style="fill:black;stroke:none" />
<rect x="226" y="74" width="6" height="6" style="fill:white;stroke:none" />
<rect x="232" y="74" width="6" height="6" style="fill:black;stroke:none" />
<rect x="238" y="74" width="6" height="6" style="fill:white;stroke:none" />
<rect x="244" y="74" width="6" height="6" style="fill:white;stroke:none" />
<rect x="250" y="74" width="6" height="6" style="fill:white;stroke:none" />
<rect x="256" y="74" width="6" height="6" style="fill:white;stroke:none" />
<rect x="262" y="74" width="6" height="6" style="fill:white;stroke:none" />
<rect x="268" y="74" width="6" height="6" style="fill:black;stroke:none" />
<rect x="124" y="80" width="6" height="6" style="fill:black;stroke:none" />
<rect x="130" y="80" width="6" height="6" style="fill:black;stroke:none" />
<rect x="136" y="80" width="6" height="6" style="fill:black;stroke:none" />
<rect x="142" y="80" width="6" height="6" style="fill:black;stroke:none" />
<rect x="148" y="80" width="6" height="6" style="fill:black;stroke:none" />
<rect x="154" y="80" width="6" height="6" style="fill:black;stroke:none" />
<rect x="160" y="80" width="6" height="6" style="fill:black;stroke:none" />
<rect x="166" y="80" width="6" height="6" style="fill:white;stroke:none" />
<rect x="172" y="80" width="6" height="6" style="fill:black;stroke:none" />
<rect x="178" y="80" width="6" height="6" style="fill:white;stroke:none" />
<rect x="184" y="80" width="6" height="6" style="fill:black;stroke:none" />
<rect x="190" y="80" width="6" height="6" style="fill:white;stroke:none" />
<rect x="196" y="80" width="6" height="6" style="fill:black;stroke:none" />
<rect x="202" y="80" width="6" height="6" style="fill:white;stroke:none" />
<rect x="208" y="80" width="6" height="6" style="fill:black;stroke:none" />
<rect x="214" y="80" width="6" height="6" style="fill:white;stroke:none" />
<rect x="220" y="80" width="6" height="6" style="fill:black;stroke:none" />
<rect x="226" y="80" width="6" height="6" style="fill:white;stroke:none" />
<rect x="232" y="80" width="6" height="6" style="fill:black;stroke:none" />
<rect x="238" y="80" width="6" height="6" style="fill:black;stroke:none" />
<rect x="244" y="80" width="6" height="6" style="fill:black;stroke:none" />
<rect x="250" y="80" width="6" height="6" style="fill:black;stroke:none" />
<rect x="256" y="80" width="6" height="6" style="fill:black;stroke:none" />
<rect x="262" y="80" width="6" height="6" style="fill:black;stroke:none" />
<rect x="268" y="80" width="6" height="6" style="fill:black;stroke:none" />
<rect x="124" y="86" width="6" height="6" style="fill:white;stroke:none" />
<rect x="130" y="86" width="6" height="6" style="fill:white;stroke:none" />
<rect x="136" y="86" width="6" height="6" style="fill:white;stroke:none" />
<rect x="142" y="86" width="6" height="6" style="fill:white;stroke:none" />
<rect x="148" y="86" width="6" height="6" style="fill:white;stroke:none" />
<rect x="154" y="86" width="6" height="6" style="fill:white;stroke:none" />
<rect x="160" y="86" width="6" height="6" style="fill:white;stroke:none" />
<rect x="166" y="86" width="6" height="6" style="fill:white;stroke:none" />
<rect x="172" y="86" width="6" height="6" style="fill:white;stroke:none" />
<rect x="178" y="86" width="6" height="6" style="fill:white;stroke:none" />
<rect x="184" y="86" width="6" height="6" style="fill:white;stroke:none" />
<rect x="190" y="86" width="6" height="6" style="fill:black;stroke:none" />
<rect x="196" y="86" width="6" height="6" style="fill:black;stroke:none" />
<rect x="202" y="86" width="6" height="6" style="fill:black;stroke:none" />
<rect x="208" y="86" width="6" height="6" style="fill:white;stroke:none" />
<rect x="214" y="86" width="6" height="6" style="fill:black;stroke:none" />
<rect x="220" y="86" width="6" height="6" style="fill:black;stroke:none" />
<rect x="226" y="86" width="6" height="6" style="fill:white;stroke:none" />
<rect x="232" y="86" width="6" height="6" style="fill:white;stroke:none" />
<rect x="238" y="86" width="6" height="6" style="fill:white;stroke:none" />
<rect x="244" y="86" width="6" height="6" style="fill:white;stroke:none" />
<rect x="250" y="86" width="6" height="6" style="fill:white;stroke:none" />
<rect x="256" y="86" width="6" height="6" style="fill:white;stroke:none" />
<rect x="262" y="86" width="6" height="6" style="fill:white;stroke:none" />
<rect x="268" y="86" width="6" height="6" style="fill:white;stroke:none" />
<rect x="124" y="92" width="6" height="6" style="fill:black;stroke:none" />
<rect x="130" y="92" width="6" height="6" style="fill:white;stroke:none" />
<rect x="136" y="92" width="6" height="6" style="fill:black;stroke:none" />
<rect x="142" y="92" width="6" height="6" style="fill:white;stroke:none" />
<rect x="148" y="92" width="6" height="6" style="fill:black;stroke:none" />
<rect x="154" y="92" width="6" height="6" style="fill:white;stroke:none" />
<rect x="160" y="92" width="6" height="6" style="fill:black;stroke:none" />
<rect x="166" y="92" width="6" height="6" style="fill:black;stroke:none" />
<rect x="172" y="92" width="6" height="6" style="fill:white;stroke:none" />
<rect x="178" y="92" width="6" height="6" style="fill:white;stroke:none" />
<rect x="184" y="92" width="6" height="6" style="fill:white;stroke:none" />
<rect x="190" y="92" width="6" height="6" style="fill:white;stroke:none" />
<rect x="196" y="92" width="6" height="6" style="fill:white;stroke:none" />
<rect x="202" y="92" width="6" height="6" style="fill:white;stroke:none" />
<rect x="208" y="92" width="6" height="6" style="fill:white;stroke:none" />
<rect x="214" y="92" width="6" height="6" style="fill:black;stroke:none" />
<rect x="220" y="92" width="6" height="6" style="fill:white;stroke:none" />
<rect x="226" y="92" width="6" height="6" style="fill:black;stroke:none" />
<rect x="232" y="92" width="6" height="6" style="fill:white;stroke:none" />
<rect x="238" y="92" width="6" height="6" style="fill:black;stroke:none" />
<rect x="244" y="92" width="6" height="6" style="fill:white;stroke:none" />
<rect x="250" y="92" width="6" height="6" style="fill:white;stroke:none" />
<rect x="256" y="92" width="6" height="6" style="fill:white;stroke:none" />
<rect x="262" y="92" width="6" height="6" style="fill:white;stroke:none" />
<rect x="268" y="92" width="6" height="6" style="fill:white;stroke:none" />
<rect x="124" y="98" width="6" height="6" style="fill:black;stroke:none" />
<rect x="130" y="98" width="6" height="6" style="fill:black;stroke:none" />
<rect x="136" y="98" width="6" height="6" style="fill:white;stroke:none" />
<rect x="142" y="98" width="6" height="6" style="fill:black;stroke:none" />
<rect x="148" y="98" width="6" height="6" style="fill:black;stroke:none" />
<rect x="154" y="98" width="6" height="6" style="fill:black;stroke:none" />
<rect x="160" y="98" width="6" height="6" style="fill:white;stroke:none" />
<rect x="166" y="98" width="6" height="6" style="fill:white;stroke:none" />
<rect x="172" y="98" width="6" height="6" style="fill:black;stroke:none" />
<rect x="178" y="98" width="6" height="6" style="fill:white;stroke:none" />
<rect x="184" y="98" width="6" height="6" style="fill:black;stroke:none" />
<rect x="190" y="98" width="6" height="6" style="fill:white;stroke:none" />
<rect x="196" y="98" width="6" height="6" style="fill:white;stroke:none" />
<rect x="202" y="98" width="6" height="6" style="fill:black;stroke:none" />
<rect x="208" y="98" width="6" height="6" style="fill:black;stroke:none" />
<rect x="214" y="98" width="6" height="6" style="fill:white;stroke:none" />
<rect x="220" y="98" width="6" height="6" style="fill:white;stroke:none" />
<rect x="226" y="98" width="6" height="6" style="fill:white;stroke:none" />
<rect x="232" y="98" width="6" height="6" style="fill:black;stroke:none" />
<rect x="238" y="98" width="6" height="6" style="fill:white;stroke:none" />
<rect x="244" y="98" width="6" height="6" style="fill:white;stroke:none" />
<rect x="250" y="98" width="6" height="6" style="fill:black;stroke:none" />
<rect x="256" y="98" width="6" height="6" style="fill:black;stroke:none" />
<rect x="262" y="98" width="6" height="6" style="fill:black;stroke:none" />
<rect x="268" y="98" width="6" height="6" style="fill:black;stroke:none" />
<rect x="124" y="104" width="6" height="6" style="fill:black;stroke:none" />
<rect x="130" y="104" width="6" height="6" style="fill:white;stroke:none" />
<rect x="136" y="104" width="6" height="6" style="fill:white;stroke:none" />
<rect x="142" y="104" width="6" height="6" style="fill:black;stroke:none" />
<rect x="148" y="104" width="6" height="6" style="fill:white;stroke:none" />
<rect x="154" y="104" width="6" height="6" style="fill:white;stroke:none" />
<rect x="160" y="104" width="6" height="6" style="fill:black;stroke:none" />
<rect x="166" y="104" width="6" height="6" style="fill:white;stroke:none" />
<rect x="172" y="104" width="6" height="6" style="fill:white;stroke:none" />
<rect x="178" y="104" width="6" height="6" style="fill:white;stroke:none" />
<rect x="184" y="104" width="6" height="6" style="fill:black;stroke:none" />
<rect x="190" y="104" width="6" height="6" style="fill:black;stroke:none" />
<rect x="196" y="104" width="6" height="6" style="fill:black;stroke:none" />
<rect x="202" y="104" width="6" height="6" style="fill:black;stroke:none" />
<rect x="208" y="104" width="6" height="6" style="fill:black;stroke:none" />
<rect x="214" y="104" width="6" height="6" style="fill:black;stroke:none" />
<rect x="220" y="104" width="6" height="6" style="fill:white;stroke:none" />
<rect x="226" y="104" width="6" height="6" style="fill:white;stroke:none" />
<rect x="232" y="104" width="6" height="6" style="fill:black;stroke:none" />
<rect x="238" y="104" width="6" height="6" style="fill:white;stroke:none" />
<rect x="244" y="104" width="6" height="6" style="fill:white;stroke:none" />
<rect x="250" y="104" width="6" height="6" style="fill:white;stroke:none" />
<rect x="256" y="104" width="6" height="6" style="fill:black;stroke:none" />
<rect x="262" y="104" width="6" height="6" style="fill:white;stroke:none" />
<rect x="268" y="104" width="6" height="6" style="fill:black;stroke:none" />
<rect x="124" y="110" width="6" height="6" style="fill:white;stroke:none" />
<rect x="130" y="110" width="6" height="6" style="fill:black;stroke:none" />
<rect x="136" y="110" width="6" height="6" style="fill:black;stroke:none" />
<rect x="142" y="110" width="6" height="6" style="fill:black;stroke:none" />
<rect x="148" y="110" width="6" height="6" style="fill:black;stroke:none" />
<rect x="154" y="110" width="6" height="6" style="fill:black;stroke:none" />
<rect x="160" y="110" width="6" height="6" style="fill:white;stroke:none" />
<rect x="166" y="110" width="6" height="6" style="fill:white;stroke:none" />
<rect x="172" y="110" width="6" height="6" style="fill:black;stroke:none" />
<rect x="178" y="110" width="6" height="6" style="fill:white;stroke:none" />
<rect x="184" y="110" width="6" height="6" style="fill:white;stroke:none" />
<rect x="190" y="110" width="6" height="6" style="fill:black;stroke:none" />
<rect x="196" y="110" width="6" height="6" style="fill:white;stroke:none" />
<rect x="202" y="110" width="6" height="6" style="fill:black;stroke:none" />
<rect x="208" y="110" width="6" height="6" style="fill:black;stroke:none" />
<rect x="214" y="110" width="6" height="6" style="fill:black;stroke:none" />
<rect x="220" y="110" width="6" height="6" style="fill:white;stroke:none" />
<rect x="226" y="110" width="6" height="6" style="fill:black;stroke:none" />
<rect x="232" y="110" width="6" height="6" style="fill:white;stroke:none" />
<rect x="238" y="110" width="6" height="6" style="fill:black;stroke:none" />
<rect x="244" y="110" width="6" height="6" style="fill:black;stroke:none" />
<rect x="250" y="110" width="6" height="6" style="fill:black;stroke:none" />
<rect x="256" y="110" width="6" height="6" style="fill:white;stroke:none" />
<rect x="262" y="110" width="6" height="6" style="fill:black;stroke:none" />
<rect x="268" y="110" width="6" height="6" style="fill:white;stroke:none" />
<rect x="124" y="116" width="6" height="6" style="fill:white;stroke:none" />
<rect x="130" y="116" width="6" height="6" style="fill:black;stroke:none" />
<rect x="136" y="116" width="6" height="6" style="fill:white;stroke:none" />
<rect x="142" y="116" width="6" height="6" style="fill:black;stroke:none" />
<rect x="148" y="116" width="6" height="6" style="fill:white;stroke:none" />
<rect x="154" y="116" width="6" height="6" style="fill:white;stroke:none" />
<rect x="160" y="116" width="6" height="6" style="fill:black;stroke:none" />
<rect x="166" y="116" width="6" height="6" style="fill:white;stroke:none" />
<rect x="172" y="116" width="6" height="6" style="fill:white;stroke:none" />
<rect x="178" y="116" width="6" height="6" style="fill:black;stroke:none" />
<rect x="184" y="116" width="6" height="6" style="fill:white;stroke:none" />
<rect x="190" y="116" width="6" height="6" style="fill:black;stroke:none" />
<rect x="196" y="116" width="6" height="6" style="fill:white;stroke:none" />
<rect x="202" y="116" width="6" height="6" style="fill:black;stroke:none" />
<rect x="208" y="116" width="6" height="6" style="fill:white;stroke:none" />
<rect x="214" y="116" width="6" height="6" style="fill:white;stroke:none" />
<rect x="220" y="116" width="6" height="6" style="fill:black;stroke:none" />
<rect x="226" y="116" width="6" height="6" style="fill:black;stroke:none" />
<rect x="232" y="116" width="6" height="6" style="fill:black;stroke:none" />
<rect x="238" y="116" width="6" height="6" style="fill:black;stroke:none" />
<rect x="244" y="116" width="6" height="6" style="fill:white;stroke:none" />
<rect x="250" y="116" width="6" height="6" style="fill:black;stroke:none" />
<rect x="256" y="116" width="6" height="6" style="fill:white;stroke:none" />
<rect x="262" y="116" width="6" height="6" style="fill:black;stroke:none" />
<rect x="268" y="116" width="6" height="6" style="fill:white;stroke:none" />
<rect x="124" y="122" width="6" height="6" style="fill:white;stroke:none" />
<rect x="130" y="122" width="6" height="6" style="fill:black;stroke:none" />
<rect x="136" y="122" width="6" height="6" style="fill:black;stroke:none" />
<rect x="142" y="122" width="6" height="6" style="fill:white;stroke:none" />
<rect x="148" y="122" width="6" height="6" style="fill:white;stroke:none" />
<rect x="154" y="122" width="6" height="6" style="fill:white;stroke:none" />
<rect x="160" y="122" width="6" height="6" style="fill:white;stroke:none" />
<rect x="166" y="122" width="6" height="6" style="fill:white;stroke:none" />
<rect x="172" y="122" width="6" height="6" style="fill:black;stroke:none" />
<rect x="178" y="122" width="6" height="6" style="fill:black;stroke:none" />
<rect x="184" y="122" width="6" height="6" style="fill:black;stroke:none" />
<rect x="190" y="122" width="6" height="6" style="fill:white;stroke:none" />
<rect x="196" y="122" width="6" height="6" style="fill:black;stroke:none" />
<rect x="202" y="122" width="6" height="6" style="fill:white;stroke:none" />
<rect x="208" y="122" width="6" height="6" style="fill:black;stroke:none" />
<rect x="214" y="122" width="6" height="6" style="fill:white;stroke:none" />
<rect x="220" y="122" width="6" height="6" style="fill:black;stroke:none" />
<rect x="226" y="122" width="6" height="6" style="fill:black;stroke:none" />
<rect x="232" y="122" width="6" height="6" style="fill:black;stroke:none" />
<rect x="238" y="122" width="6" height="6" style="fill:black;stroke:none" />
<rect x="244" y="122" width="6" height="6" style="fill:white;stroke:none" />
<rect x="250" y="122" width="6" height="6" style="fill:white;stroke:none" />
<rect x="256" y="122" width="6" height="6" style="fill:white;stroke:none" />
<rect x="262" y="122" width="6" height="6" style="fill:black;stroke:none" />
<rect x="268" y="122" width="6" height="6" style="fill:white;stroke:none" />
<rect x="124" y="128" width="6" height="6" style="fill:black;stroke:none" />
<rect x="130" y="128" width="6" height="6" style="fill:white;stroke:none" />
<rect x="136" y="128" width="6" height="6" style="fill:black;stroke:none" />
<rect x="142" y="128" width="6" height="6" style="fill:black;stroke:none" />
<rect x="148" y="128" width="6" height="6" style="fill:black;stroke:none" />
<rect x="154" y="128" width="6" height="6" style="fill:white;stroke:none" />
<rect x="160" y="128" width="6" height="6" style="fill:black;stroke:none" />
<rect x="166" y="128" width="6" height="6" style="fill:white;stroke:none" />
<rect x="172" y="128" width="6" height="6" style="fill:black;stroke:none" />
<rect x="178" y="128" width="6" height="6" style="fill:black;stroke:none" />
<rect x="184" y="128" width="6" height="6" style="fill:white;stroke:none" />
<rect x="190" y="128" width="6" height="6" style="fill:white;stroke:none" />
<rect x="196" y="128" width="6" height="6" style="fill:black;stroke:none" />
<rect x="202" y="128" width="6" height="6" style="fill:black;stroke:none" />
<rect x="208" y="128" width="6" height="6" style="fill:white;stroke:none" />
<rect x="214" y="128" width="6" height="6" style="fill:black;stroke:none" />
<rect x="220" y="128" width="6" height="6" style="fill:white;stroke:none" />
<rect x="226" y="128" width="6" height="6" style="fill:white;stroke:none" />
<rect x="232" y="128" width="6" height="6" style="fill:white;stroke:none" />
<rect x="238" y="128" width="6" height="6" style="fill:black;stroke:none" />
<rect x="244" y="128" width="6" height="6" style="fill:white;stroke:none" />
<rect x="250" y="128" width="6" height="6" style="fill:black;stroke:none" />
<rect x="256" y="128" width="6" height="6" style="fill:white;stroke:none" />
<rect x="262" y="128" width="6" height="6" style="fill:black;stroke:none" />
<rect x="268" y="128" width="6" height="6" style="fill:black;stroke:none" />
<rect x="124" y="134" width="6" height="6" style="fill:white;stroke:none" />
<rect x="130" y="134" width="6" height="6" style="fill:white;stroke:none" />
<rect x="136" y="134" width="6" height="6" style="fill:black;stroke:none" />
<rect x="142" y="134" width="6" height="6" style="fill:black;stroke:none" />
<rect x="148" y="134" width="6" height="6" style="fill:white;stroke:none" />
<rect x="154" y="134" width="6" height="6" style="fill:white;stroke:none" />
<rect x="160" y="134" width="6" height="6" style="fill:white;stroke:none" />
<rect x="166" y="134" width="6" height="6" style="fill:white;stroke:none" />
<rect x="172" y="134" width="6" height="6" style="fill:black;stroke:none" />
<rect x="178" y="134" width="6" height="6" style="fill:black;stroke:none" />
<rect x="184" y="134" width="6" height="6" style="fill:white;stroke:none" />
<rect x="190" y="134" width="6" height="6" style="fill:white;stroke:none" />
<rect x="196" y="134" width="6" height="6" style="fill:white;stroke:none" />
<rect x="202" y="134" width="6" height="6" style="fill:white;stroke:none" />
<rect x="208" y="134" width="6" height="6" style="fill:black;stroke:none" />
<rect x="214" y="134" width="6" height="6" style="fill:white;stroke:none" />
<rect x="220" y="134" width="6" height="6" style="fill:black;stroke:none" />
<rect x="226" y="134" width="6" height="6" style="fill:white;stroke:none" />
<rect x="232" y="134" width="6" height="6" style="fill:black;stroke:none" />
<rect x="238" y="134" width="6" height="6" style="fill:black;stroke:none" />
<rect x="244" y="134" width="6" height="6" style="fill:white;stroke:none" />
<rect x="250" y="134" width="6" height="6" style="fill:white;stroke:none" />
<rect x="256" y="134" width="6" height="6" style="fill:white;stroke:none" />
<rect x="262" y="134" width="6" height="6" style="fill:black;stroke:none" />
<rect x="268" y="134" width="6" height="6" style="fill:black;stroke:none" />
<rect x="124" y="140" width="6" height="6" style="fill:black;stroke:none" />
<rect x="130" y="140" width="6" height="6" style="fill:white;stroke:none" />
<rect x="136" y="140" width="6" height="6" style="fill:white;stroke:none" />
<rect x="142" y="140" width="6" height="6" style="fill:white;stroke:none" />
<rect x="148" y="140" width="6" height="6" style="fill:black;stroke:none" />
<rect x="154" y="140" width="6" height="6" style="fill:white;stroke:none" />
<rect x="160" y="140" width="6" height="6" style="fill:black;stroke:none" />
<rect x="166" y="140" width="6" height="6" style="fill:white;stroke:none" />
<rect x="172" y="140" width="6" height="6" style="fill:black;stroke:none" />
<rect x="178" y="140" width="6" height="6" style="fill:white;stroke:none" />
<rect x="184" y="140" width="6" height="6" style="fill:black;stroke:none" />
<rect x="190" y="140" width="6" height="6" style="fill:white;stroke:none" />
<rect x="196" y="140" width="6" height="6" style="fill:white;stroke:none" />
<rect x="202" y="140" width="6" height="6" style="fill:white;stroke:none" />
<rect x="208" y="140" width="6" height="6" style="fill:black;stroke:none" />
<rect x="214" y="140" width="6" height="6" style="fill:black;stroke:none" />
<rect x="220" y="140" width="6" height="6" style="fill:black;stroke:none" />
<rect x="226" y="140" width="6" height="6" style="fill:black;stroke:none" />
<rect x="232" y="140" width="6" height="6" style="fill:black;stroke:none" />
<rect x="238" y="140" width="6" height="6" style="fill:black;stroke:none" />
<rect x="244" y="140" width="6" height="6" style="fill:black;stroke:none" />
<rect x="250" y="140" width="6" height="6" style="fill:white;stroke:none" />
<rect x="256" y="140" width="6" height="6" style="fill:black;stroke:none" />
<rect x="262" y="140" width="6" height="6" style="fill:white;stroke:none" />
<rect x="268" y="140" width="6" height="6" style="fill:black;stroke:none" />
<rect x="124" y="146" width="6" height="6" style="fill:white;stroke:none" />
<rect x="130" y="146" width="6" height="6" style="fill:white;stroke:none" />
<rect x="136" y="146" width="6" height="6" style="fill:white;stroke:none" />
<rect x="142" y="146" width="6" height="6" style="fill:white;stroke:none" />
<rect x="148" y="146" width="6" height="6" style="fill:white;stroke:none" />
<rect x="154" y="146" width="6" height="6" style="fill:white;stroke:none" />
<rect x="160" y="146" width="6" height="6" style="fill:white;stroke:none" />
<rect x="166" y="146" width="6" height="6" style="fill:white;stroke:none" />
<rect x="172" y="146" width="6" height="6" style="fill:white;stroke:none" />
<rect x="178" y="146" width="6" height="6" style="fill:white;stroke:none" />
<rect x="184" y="146" width="6" height="6" style="fill:white;stroke:none" />
<rect x="190" y="146" width="6" height="6" style="fill:black;stroke:none" />
<rect x="196" y="146" width="6" height="6" style="fill:black;stroke:none" />
<rect x="202" y="146" width="6" height="6" style="fill:black;stroke:none" />
<rect x="208" y="146" width="6" height="6" style="fill:black;stroke:none" />
<rect x="214" y="146" width="6" height="6" style="fill:white;stroke:none" />
<rect x="220" y="146" width="6" height="6" style="fill:black;stroke:none" />
<rect x="226" y="146" width="6" height="6" style="fill:white;stroke:none" />
<rect x="232" y="146" width="6" height="6" style="fill:white;stroke:none" />
<rect x="238" y="146" width="6" height="6" style="fill:white;stroke:none" />
<rect x="244" y="146" width="6" height="6" style="fill:black;stroke:none" />
<rect x="250" y="146" width="6" height="6" style="fill:black;stroke:none" />
<rect x="256" y="146" width="6" height="6" style="fill:white;stroke:none" />
<rect x="262" y="146" width="6" height="6" style="fill:white;stroke:none" />
<rect x="268" y="146" width="6" height="6" style="fill:white;stroke:none" />
<rect x="124" y="152" width="6" height="6" style="fill:black;stroke:none" />
<rect x="130" y="152" width="6" height="6" style="fill:black;stroke:none" />
<rect x="136" y="152" width="6" height="6" style="fill:black;stroke:none" />
<rect x="142" y="152" width="6" height="6" style="fill:black;stroke:none" />
<rect x="148" y="152" width="6" height="6" style="fill:black;stroke:none" />
<rect x="154" y="152" width="6" height="6" style="fill:black;stroke:none" />
<rect x="160" y="152" width="6" height="6" style="fill:black;stroke:none" />
<rect x="166" y="152" width="6" height="6" style="fill:white;stroke:none" />
<rect x="172" y="152" width="6" height="6" style="fill:black;stroke:none" />
<rect x="178" y="152" width="6" height="6" style="fill:black;stroke:none" />
<rect x="184" y="152" width="6" height="6" style="fill:black;stroke:none" />
<rect x="190" y="152" width="6" height="6" style="fill:black;stroke:none" />
<rect x="196" y="152" width="6" height="6" style="fill:black;stroke:none" />
<rect x="202" y="152" width="6" height="6" style="fill:black;stroke:none" />
<rect x="208" y="152" width="6" height="6" style="fill:white;stroke:none" />
<rect x="214" y="152" width="6" height="6" style="fill:white;stroke:none" />
<rect x="220" y="152" width="6" height="6" style="fill:black;stroke:none" />
<rect x="226" y="152" width="6" height="6" style="fill:white;stroke:none" />
<rect x="232" y="152" width="6" height="6" style="fill:black;stroke:none" />
<rect x="238" y="152" width="6" height="6" style="fill:white;stroke:none" />
<rect x="244" y="152" width="6" height="6" style="fill:black;stroke:none" />
<rect x="250" y="152" width="6" height="6" style="fill:white;stroke:none" />
<rect x="256" y="152" width="6" height="6" style="fill:black;stroke:none" />
<rect x="262" y="152" width="6" height="6" style="fill:black;stroke:none" />
<rect x="268" y="152" width="6" height="6" style="fill:black;stroke:none" />
<rect x="124" y="158" width="6" height="6" style="fill:black;stroke:none" />
<rect x="130" y="158" width="6" height="6" style="fill:white;stroke:none" />
<rect x="136" y="158" width="6" height="6" style="fill:white;stroke:none" />
<rect x="142" y="158" width="6" height="6" style="fill:white;stroke:none" />
<rect x="148" y="158" width="6" height="6" style="fill:white;stroke:none" />
<rect x="154" y="158" width="6" height="6" style="fill:white;stroke:none" />
<rect x="160" y="158" width="6" height="6" style="fill:black;stroke:none" />
<rect x="166" y="158" width="6" height="6" style="fill:white;stroke:none" />
<rect x="172" y="158" width="6" height="6" style="fill:white;stroke:none" />
<rect x="178" y="158" width="6" height="6" style="fill:black;stroke:none" />
<rect x="184" y="158" width="6" height="6" style="fill:white;stroke:none" />
<rect x="190" y="158" width="6" height="6" style="fill:black;stroke:none" />
<rect x="196" y="158" width="6" height="6" style="fill:black;stroke:none" />
<rect x="202" y="158" width="6" height="6" style="fill:white;stroke:none" />
<rect x="208" y="158" width="6" height="6" style="fill:white;stroke:none" />
<rect x="214" y="158" width="6" height="6" style="fill:black;stroke:none" />
<rect x="220" y="158" width="6" height="6" style="fill:black;stroke:none" />
<rect x="226" y="158" width="6" height="6" style="fill:white;stroke:none" />
<rect x="232" y="158" width="6" height="6" style="fill:white;stroke:none" />
<rect x="238" y="158" width="6" height="6" style="fill:white;stroke:none" />
<rect x="244" y="158" width="6" height="6" style="fill:black;stroke:none" />
<rect x="250" y="158" width="6" height="6" style="fill:black;stroke:none" />
<rect x="256" y="158" width="6" height="6" style="fill:black;stroke:none" />
<rect x="262" y="158" width="6" height="6" style="fill:black;stroke:none" />
<rect x="268" y="158" width="6" height="6" style="fill:black;stroke:none" />
<rect x="124" y="164" width="6" height="6" style="fill:black;stroke:none" />
<rect x="130" y="164" width="6" height="6" style="fill:white;stroke:none" />
<rect x="136" y="164" width="6" height="6" style="fill:black;stroke:none" />
<rect x="142" y="164" width="6" height="6" style="fill:black;stroke:none" />
<rect x="148" y="164" width="6" height="6" style="fill:black;stroke:none" />
<rect x="154" y="164" width="6" height="6" style="fill:white;stroke:none" />
<rect x="160" y="164" width="6" height="6" style="fill:black;stroke:none" />
<rect x="166" y="164" width="6" height="6" style="fill:white;stroke:none" />
<rect x="172" y="164" width="6" height="6" style="fill:black;stroke:none" />
<rect x="178" y="164" width="6" height="6" style="fill:white;stroke:none" />
<rect x="184" y="164" width="6" height="6" style="fill:black;stroke:none" />
<rect x="190" y="164" width="6" height="6" style="fill:black;stroke:none" />
<rect x="196" y="164" width="6" height="6" style="fill:black;stroke:none" />
<rect x="202" y="164" width="6" height="6" style="fill:white;stroke:none" />
<rect x="208" y="164" width="6" height="6" style="fill:black;stroke:none" />
<rect x="214" y="164" width="6" height="6" style="fill:black;stroke:none" />
<rect x="220" y="164" width="6" height="6" style="fill:black;stroke:none" />
<rect x="226" y="164" width="6" height="6" style="fill:black;stroke:none" />
<rect x="232" y="164" width="6" height="6" style="fill:black;stroke:none" />
<rect x="238" y="164" width="6" height="6" style="fill:black;stroke:none" />
<rect x="244" y="164" width="6" height="6" style="fill:black;stroke:none" />
<rect x="250" y="164" width="6" height="6" style="fill:black;stroke:none" />
<rect x="256" y="164" width="6" height="6" style="fill:white;stroke:none" />
<rect x="262" y="164" width="6" height="6" style="fill:white;stroke:none" />
<rect x="268" y="164" width="6" height="6" style="fill:white;stroke:none" />
<rect x="124" y="170" width="6" height="6" style="fill:black;stroke:none" />
<rect x="130" y="170" width="6" height="6" style="fill:white;stroke:none" />
<rect x="136" y="170" width="6" height="6" style="fill:black;stroke:none" />
<rect x="142" y="170" width="6" height="6" style="fill:black;stroke:none" />
<rect x="148" y="170" width="6" height="6" style="fill:black;stroke:none" />
<rect x="154" y="170" width="6" height="6" style="fill:white;stroke:none" />
<rect x="160" y="170" width="6" height="6" style="fill:black;stroke:none" />
<rect x="166" y="170" width="6" height="6" style="fill:white;stroke:none" />
<rect x="172" y="170" width="6" height="6" style="fill:white;stroke:none" />
<rect x="178" y="170" width="6" height="6" style="fill:black;stroke:none" />
<rect x="184" y="170" width="6" height="6" style="fill:white;stroke:none" />
<rect x="190" y="170" width="6" height="6" style="fill:black;stroke:none" />
<rect x="196" y="170" width="6" height="6" style="fill:white;stroke:none" />
<rect x="202" y="170" width="6" height="6" style="fill:black;stroke:none" />
<rect x="208" y="170" width="6" height="6" style="fill:white;stroke:none" />
<rect x="214" y="170" width="6" height="6" style="fill:black;stroke:none" />
<rect x="220" y="170" width="6" height="6" style="fill:white;stroke:none" />
<rect x="226" y="170" width="6" height="6" style="fill:black;stroke:none" />
<rect x="232" y="170" width="6" height="6" style="fill:black;stroke:none" />
<rect x="238" y="170" width="6" height="6" style="fill:white;stroke:none" />
<rect x="244" y="170" width="6" height="6" style="fill:black;stroke:none" />
<rect x="250" y="170" width="6" height="6" style="fill:black;stroke:none" />
<rect x="256" y="170" width="6" height="6" style="fill:white;stroke:none" />
<rect x="262" y="170" width="6" height="6" style="fill:black;stroke:none" />
<rect x="268" y="170" width="6" height="6" style="fill:white;stroke:none" />
<rect x="124" y="176" width="6" height="6" style="fill:black;stroke:none" />
<rect x="130" y="176" width="6" height="6" style="fill:white;stroke:none" />
<rect x="136" y="176" width="6" height="6" style="fill:black;stroke:none" />
<rect x="142" y="176" width="6" height="6" style="fill:black;stroke:none" />
<rect x="148" y="176" width="6" height="6" style="fill:black;stroke:none" />
<rect x="154" y="176" width="6" height="6" style="fill:white;stroke:none" />
<rect x="160" y="176" width="6" height="6" style="fill:black;stroke:none" />
<rect x="166" y="176" width="6" height="6" style="fill:white;stroke:none" />
<rect x="172" y="176" width="6" height="6" style="fill:black;stroke:none" />
<rect x="178" y="176" width="6" height="6" style="fill:black;stroke:none" />
<rect x="184" y="176" width="6" height="6" style="fill:white;stroke:none" />
<rect x="190" y="176" width="6" height="6" style="fill:white;stroke:none" />
<rect x="196" y="176" width="6" height="6" style="fill:white;stroke:none" />
<rect x="202" y="176" width="6" height="6" style="fill:white;stroke:none" />
<rect x="208" y="176" width="6" height="6" style="fill:white;stroke:none" />
<rect x="214" y="176" width="6" height="6" style="fill:black;stroke:none" />
<rect x="220" y="176" width="6" height="6" style="fill:white;stroke:none" />
<rect x="226" y="176" width="6" height="6" style="fill:white;stroke:none" />
<rect x="232" y="176" width="6" height="6" style="fill:white;stroke:none" />
<rect x="238" y="176" width="6" height="6" style="fill:white;stroke:none" />
<rect x="244" y="176" width="6" height="6" style="fill:black;stroke:none" />
<rect x="250" y="176" width="6" height="6" style="fill:white;stroke:none" />
<rect x="256" y="176" width="6" height="6" style="fill:black;stroke:none" />
<rect x="262" y="176" width="6" height="6" style="fill:white;stroke:none" />
<rect x="268" y="176" width="6" height="6" style="fill:black;stroke:none" />
<rect x="124" y="182" width="6" height="6" style="fill:black;stroke:none" />
<rect x="130" y="182" width="6" height="6" style="fill:white;stroke:none" />
<rect x="136" y="182" width="6" height="6" style="fill:white;stroke:none" />
<rect x="142" y="182" width="6" height="6" style="fill:white;stroke:none" />
<rect x="148" y="182" width="6" height="6" style="fill:white;stroke:none" />
<rect x="154" y="182" width="6" height="6" style="fill:white;stroke:none" />
<rect x="160" y="182" width="6" height="6" style="fill:black;stroke:none" />
<rect x="166" y="182" width="6" height="6" style="fill:white;stroke:none" />
<rect x="172" y="182" width="6" height="6" style="fill:white;stroke:none" />
<rect x="178" y="182" width="6" height="6" style="fill:white;stroke:none" />
<rect x="184" y="182" width="6" height="6" style="fill:black;stroke:none" />
<rect x="190" y="182" width="6" height="6" style="fill:white;stroke:none" />
<rect x="196" y="182" width="6" height="6" style="fill:white;stroke:none" />
<rect x="202" y="182" width="6" height="6" style="fill:black;stroke:none" />
<rect x="208" y="182" width="6" height="6" style="fill:black;stroke:none" />
<rect x="214" y="182" width="6" height="6" style="fill:white;stroke:none" />
<rect x="220" y="182" width="6" height="6" style="fill:white;stroke:none" />
<rect x="226" y="182" width="6" height="6" style="fill:white;stroke:none" />
<rect x="232" y="182" width="6" height="6" style="fill:black;stroke:none" />
<rect x="238" y="182" width="6" height="6" style="fill:white;stroke:none" />
<rect x="244" y="182" width="6" height="6" style="fill:white;stroke:none" />
<rect x="250" y="182" width="6" height="6" style="fill:white;stroke:none" />
<rect x="256" y="182" width="6" height="6" style="fill:white;stroke:none" />
<rect x="262" y="182" width="6" height="6" style="fill:white;stroke:none" />
<rect x="268" y="182" width="6" height="6" style="fill:white;stroke:none" />
<rect x="124" y="188" width="6" height="6" style="fill:black;stroke:none" />
<rect x="130" y="188" width="6" height="6" style="fill:black;stroke:none" />
<rect x="136" y="188" width="6" height="6" style="fill:black;stroke:none" />
<rect x="142" y="188" width="6" height="6" style="fill:black;stroke:none" />
<rect x="148" y="188" width="6" height="6" style="fill:black;stroke:none" />
<rect x="154" y="188" width="6" height="6" style="fill:black;stroke:none" />
<rect x="160" y="188" width="6" height="6" style="fill:black;stroke:none" />
<rect x="166" y="188" width="6" height="6" style="fill:white;stroke:none" />
<rect x="172" y="188" width="6" height="6" style="fill:black;stroke:none" />
<rect x="178" y="188" width="6" height="6" style="fill:black;stroke:none" />
<rect x="184" y="188" width="6" height="6" style="fill:black;stroke:none" />
<rect x="190" y="188" width="6" height="6" style="fill:black;stroke:none" />
<rect x="196" y="188" width="6" height="6" style="fill:black;stroke:none" />
<rect x="202" y="188" width="6" height="6" style="fill:black;stroke:none" />
<rect x="208" y="188" width="6" height="6" style="fill:black;stroke:none" />
<rect x="214" y="188" width="6" height="6" style="fill:white;stroke:none" />
<rect x="220" y="188" width="6" height="6" style="fill:white;stroke:none" />
<rect x="226" y="188" width="6" height="6" style="fill:white;stroke:none" />
<rect x="232" y="188" width="6" height="6" style="fill:black;stroke:none" />
<rect x="238" y="188" width="6" height="6" style="fill:black;stroke:none" />
<rect x="244" y="188" width="6" height="6" style="fill:white;stroke:none" />
<rect x="250" y="188" width="6" height="6" style="fill:black;stroke:none" />
<rect x="256" y="188" width="6" height="6" style="fill:black;stroke:none" />
<rect x="262" y="188" width="6" height="6" style="fill:black;stroke:none" />
<rect x="268" y="188" width="6" height="6" style="fill:black;stroke:none" />
<rect x="20" y="200" width="350" height="90" style="fill:black" />
<text x="30" y="240" style="fill:white;font-size:30pt;text-anchor:start" >512008</text>
<text x="350" y="270" style="fill:white;font-size:50pt;text-anchor:end" >8054</text>
</svg>
