<?xml version="1.0"?>
<!-- Generated by SVGo -->
<svg width="400" height="300"
     viewBox="20 20 350 260"
     xmlns="http://www.w3.org/2000/svg"
     xmlns:xlink="http://www.w3.org/1999/xlink">
<rect x="0" y="0" width="400" height="300" style="fill:white" />
<rect x="60" y="20" width="5" height="170" style="fill:black" />
<rect x="67" y="20" width="3" height="170" style="fill:black" />
<rect x="74" y="20" width="2" height="170" style="fill:black" />
<rect x="86" y="20" width="4" height="170" style="fill:black" />
<rect x="95" y="20" width="2" height="170" style="fill:black" />
<rect x="104" y="20" width="2" height="170" style="fill:black" />
<rect x="111" y="20" width="4" height="170" style="fill:black" />
<rect x="117" y="20" width="7" height="170" style="fill:black" />
<rect x="127" y="20" width="2" height="170" style="fill:black" />
<rect x="136" y="20" width="6" height="170" style="fill:black" />
<rect x="145" y="20" width="4" height="170" style="fill:black" />
<rect x="156" y="20" width="2" height="170" style="fill:black" />
<rect x="161" y="20" width="6" height="170" style="fill:black" />
<rect x="170" y="20" width="2" height="170" style="fill:black" />
<rect x="174" y="20" width="5" height="170" style="fill:black" />
<rect x="186" y="20" width="2" height="170" style="fill:black" />
<rect x="195" y="20" width="2" height="170" style="fill:black" />
<rect x="199" y="20" width="5" height="170" style="fill:black" />
<rect x="211" y="20" width="4" height="170" style="fill:black" />
<rect x="218" y="20" width="9" height="170" style="fill:black" />
<rect x="229" y="20" width="5" height="170" style="fill:black" />
<rect x="236" y="20" width="2" height="170" style="fill:black" />
<rect x="243" y="20" width="6" height="170" style="fill:black" />
<rect x="254" y="20" width="5" height="170" style="fill:black" />
<rect x="261" y="20" width="4" height="170" style="fill:black" />
<rect x="272" y="20" width="2" height="170" style="fill:black" />
<rect x="281" y="20" width="3" height="170" style="fill:black" />
<rect x="286" y="20" width="2" height="170" style="fill:black" />
<rect x="290" y="20" width="5" height="170" style="fill:black" />
<rect x="300" y="20" width="6" height="170" style="fill:black" />
<rect x="311" y="20" width="4" height="170" style="fill:black" />
<rect x="322" y="20" width="7" height="170" style="fill:black" />
<rect x="331" y="20" width="3" height="170" style="fill:black" />
<rect x="336" y="20" width="4" height="170" style="fill:black" />
<rect x="20" y="200" width="350" height="90" style="fill:black" />
<text x="30" y="240" style="fill:white;font-size:30pt;text-anchor:start" >493807</text>
<text x="350" y="270" style="fill:white;font-size:50pt;text-anchor:end" >3917</text>
</svg>
